<svg width="200" height="200" viewBox="0 0 200 200" fill="none" xmlns="http://www.w3.org/2000/svg">
  <rect x="40" y="30" width="120" height="140" rx="8" fill="#E2E8F0" />
  <rect x="55" y="50" width="90" height="10" rx="2" fill="#94A3B8" />
  <rect x="55" y="70" width="90" height="10" rx="2" fill="#94A3B8" />
  <rect x="55" y="90" width="90" height="10" rx="2" fill="#94A3B8" />
  <rect x="55" y="110" width="90" height="10" rx="2" fill="#94A3B8" />
  <rect x="55" y="130" width="60" height="10" rx="2" fill="#94A3B8" />
  <circle cx="47" cy="70" r="5" fill="#3B82F6" />
  <circle cx="47" cy="110" r="5" fill="#3B82F6" />
  <path d="M160 60L170 70L190 50" stroke="#10B981" stroke-width="4" stroke-linecap="round" stroke-linejoin="round" />
  <path d="M30 150C30 130 50 140 70 120M100 180C80 160 120 140 140 160" stroke="#CBD5E1" stroke-width="3" stroke-linecap="round" />
</svg> 